HIERARCHY
ROOT Hips
{
	OFFSET 0.000000 0.000000 0.000000 
	CHANNELS 6 Xposition Yposition Zposition Zrotation Yrotation Xrotation
	JOINT LeftUpLeg
	{
		OFFSET 1.363060 -1.794630 0.839290 
		CHANNELS 3 Zrotation Yrotation Xrotation
		JOINT LeftLeg
		{
			OFFSET 2.448110 -6.726130 0.000000 
			CHANNELS 3 Zrotation Yrotation Xrotation
			JOINT LeftFoot
			{
				OFFSET 2.562200 -7.039590 0.000000 
				CHANNELS 3 Zrotation Yrotation Xrotation
				JOINT LeftToeBase
				{
					OFFSET 0.157640 -0.433110 2.322550 
					CHANNELS 3 Zrotation Yrotation Xrotation
					End Site
					{
						OFFSET 0.000000 0.000000 0.000000 
					}
				}
			}
		}
	}
	JOINT RightUpLeg
	{
		OFFSET -1.305520 -1.794630 0.839290 
		CHANNELS 3 Zrotation Yrotation Xrotation
		JOINT RightLeg
		{
			OFFSET -2.542530 -6.985550 0.000000 
			CHANNELS 3 Zrotation Yrotation Xrotation
			JOINT RightFoot
			{
				OFFSET -2.568260 -7.056230 0.000000 
				CHANNELS 3 Zrotation Yrotation Xrotation
				JOINT RightToeBase
				{
					OFFSET -0.164730 -0.452590 2.363150 
					CHANNELS 3 Zrotation Yrotation Xrotation
					End Site
					{
						OFFSET 0.000000 0.000000 0.000000 
					}
				}
			}
		}
	}
	JOINT Spine
	{
		OFFSET 0.028270 2.035590 -0.193380 
		CHANNELS 3 Zrotation Yrotation Xrotation
		JOINT Spine1
		{
			OFFSET 0.056720 2.048850 -0.042750 
			CHANNELS 3 Zrotation Yrotation Xrotation
			JOINT Neck1
			{
				OFFSET -0.054170 1.746240 0.172020 
				CHANNELS 3 Zrotation Yrotation Xrotation
				JOINT Head
				{
					OFFSET 0.104070 1.761360 -0.123970 
					CHANNELS 3 Zrotation Yrotation Xrotation
					End Site
					{
						OFFSET 0.000000 0.000000 0.000000 
					}
				}
			}
			JOINT LeftArm
			{
				OFFSET 3.362410 1.200890 -0.311210 
				CHANNELS 3 Zrotation Yrotation Xrotation
				JOINT LeftForeArm
				{
					OFFSET 4.983000 -0.000000 -0.000000 
					CHANNELS 3 Zrotation Yrotation Xrotation
					JOINT LeftHand
					{
						OFFSET 3.483560 -0.000000 -0.000000 
						CHANNELS 3 Zrotation Yrotation Xrotation
						JOINT LeftHandIndex1
						{
							OFFSET 0.715260 -0.000000 -0.000000 
							CHANNELS 3 Zrotation Yrotation Xrotation
							End Site
							{
								OFFSET 0.000000 0.000000 0.000000 
							}
						}
					}
				}
			}
			JOINT RightArm
			{
				OFFSET -3.136600 1.374050 -0.404650 
				CHANNELS 3 Zrotation Yrotation Xrotation
				JOINT RightForeArm
				{
					OFFSET -5.241900 -0.000000 -0.000000 
					CHANNELS 3 Zrotation Yrotation Xrotation
					JOINT RightHand
					{
						OFFSET -3.444170 -0.000000 -0.000000 
						CHANNELS 3 Zrotation Yrotation Xrotation
						JOINT RightHandIndex1
						{
							OFFSET -0.622530 -0.000000 -0.000000 
							CHANNELS 3 Zrotation Yrotation Xrotation
							End Site
							{
								OFFSET 0.000000 0.000000 0.000000 
							}
						}
					}
				}
			}
		}
	}
}
MOTION
Frames: 15
Frame Time: 0.041667
16.259986 17.825828 -33.619452 -2.293361 -11.299865 14.502227 -7.542139 -2.535210 -21.048337 1.018491 9.524913 27.087650 1.597376 11.511907 -35.237786 4.177300 12.392600 37.135500 7.783524 7.041887 -20.650057 -3.255084 -10.998218 32.226920 -1.913197 21.826531 -19.097565 -13.664300 -19.009000 71.176600 0.718271 -1.646666 -4.392785 2.242752 -1.078549 2.320475 6.817702 -3.048023 14.333184 1.112500 -0.991400 4.834700 -93.297184 11.211763 48.628298 48.769901 -53.453039 -20.267484 -1.491415 1.623855 -18.971507 -7.125000 0.000000 0.000000 95.475506 -2.382603 31.379616 -23.790953 35.081845 -7.309344 0.612641 -0.716338 10.855189 7.125000 0.000000 0.000000 
16.173942 17.824762 -33.653464 -2.269992 -11.575874 14.734782 -7.244275 -2.765029 -21.152131 1.003073 9.501650 27.019719 1.586615 11.692291 -35.388176 4.243000 12.476900 37.440600 8.116747 7.144079 -20.762529 -3.187634 -10.907432 31.907930 -2.300097 20.635318 -21.227687 -13.564800 -18.976700 70.871000 0.705302 -1.740331 -4.448643 2.244623 -1.120754 2.272256 6.880603 -2.855441 14.005341 1.137800 -0.903400 4.715100 -93.292523 10.945437 48.268856 46.869470 -52.574658 -19.026082 -1.509959 1.668635 -18.787736 -7.125000 0.000000 0.000000 95.627655 -2.660590 31.666873 -24.211507 35.522674 -7.522817 0.625762 -0.726390 10.817144 7.125000 0.000000 0.000000 
16.083634 17.820604 -33.684384 -2.247109 -11.758015 14.855096 -6.927183 -2.946442 -21.159964 0.992566 9.483851 26.953928 1.568479 11.697072 -35.333488 4.385000 12.655800 38.093200 8.462523 7.684703 -20.507790 -3.117770 -10.822461 31.604906 -2.819793 18.944806 -24.146373 -13.329700 -18.898000 70.146400 0.698231 -1.854457 -4.481636 2.256049 -1.175769 2.236603 6.918312 -2.698132 13.735230 1.147700 -0.830800 4.624700 -93.244737 10.752812 47.975561 45.168550 -51.709558 -17.903338 -1.477588 1.720718 -18.559967 -7.125000 0.000000 0.000000 95.771675 -2.909102 31.942624 -24.585199 35.915547 -7.723231 0.636049 -0.726507 10.747259 7.125000 0.000000 0.000000 
15.992792 17.817725 -33.719143 -2.231151 -12.051035 15.101907 -6.616958 -3.083401 -21.320190 0.978556 9.462605 26.895651 1.526066 12.031912 -35.492426 4.336300 12.595000 37.870800 8.801244 7.705614 -20.714397 -3.035745 -10.728104 31.301848 -3.071086 17.140550 -25.649946 -13.147800 -18.834900 69.584000 0.681540 -1.964914 -4.544292 2.228197 -1.225527 2.179811 7.041928 -2.494465 13.430310 1.213800 -0.737400 4.508400 -93.231028 10.597534 47.530818 43.596233 -50.866341 -16.898030 -1.473431 1.763481 -18.423471 -7.125000 0.000000 0.000000 95.923634 -3.196567 32.271292 -24.972451 36.314124 -7.926224 0.647736 -0.733840 10.719994 7.125000 0.000000 0.000000 
15.895767 17.814100 -33.747184 -2.121423 -12.357780 15.209731 -6.428189 -3.010210 -21.406248 0.966679 9.446961 26.837913 1.466513 12.290400 -35.496625 4.234700 12.466300 37.402200 8.893579 8.747990 -20.325040 -2.966040 -10.639239 31.026353 -3.359699 15.671541 -27.440025 -12.928300 -18.756100 68.902600 0.639076 -1.992669 -4.575305 2.226041 -1.239297 2.163975 7.095797 -2.351302 13.210138 1.226400 -0.669300 4.427400 -93.114704 10.496124 47.259395 42.334462 -50.136106 -16.096361 -1.360186 1.843765 -18.107695 -7.125000 0.000000 0.000000 96.101181 -3.384750 32.376953 -25.291800 36.639046 -8.089275 0.655634 -0.743418 10.196148 7.125000 0.000000 0.000000 
15.801513 17.807490 -33.778425 -2.056339 -12.643272 15.353723 -6.180464 -3.014989 -21.508629 0.958303 9.434968 26.793775 1.430615 12.464400 -35.528573 4.220000 12.447600 37.334200 9.083028 9.537081 -20.083392 -2.895560 -10.552180 30.762860 -3.615620 14.172556 -29.124417 -12.684800 -18.665400 68.143700 0.610172 -2.056705 -4.615603 2.219147 -1.269025 2.128108 7.162937 -2.185288 12.957808 1.252000 -0.592100 4.332800 -93.044198 10.369823 46.923355 41.007641 -49.348549 -15.279792 -1.332508 1.891593 -17.851431 -7.125000 0.000000 0.000000 96.253068 -3.623860 32.661235 -25.625812 36.977255 -8.268183 0.664610 -0.747681 10.007460 7.125000 0.000000 0.000000 
15.706087 17.799813 -33.808598 -1.985960 -12.948661 15.467321 -5.946449 -2.974339 -21.582410 0.947095 9.418364 26.733759 1.389238 12.653213 -35.553640 4.197600 12.418900 37.230300 9.243382 10.462492 -19.776121 -2.835553 -10.478606 30.550688 -3.837890 12.799451 -30.656664 -12.435500 -18.568800 67.362800 0.576749 -2.104506 -4.649404 2.208187 -1.291362 2.096142 7.221019 -2.021774 12.716520 1.273300 -0.516200 4.239500 -92.971768 10.267257 46.579919 39.778003 -48.587269 -14.541165 -1.313121 1.936613 -17.555352 -7.125000 0.000000 0.000000 96.398023 -3.851748 32.971754 -25.929663 37.283175 -8.433295 0.672552 -0.750066 9.818065 7.125000 0.000000 0.000000 
15.610021 17.791816 -33.837599 -1.916067 -13.270111 15.550714 -5.718937 -2.905153 -21.625284 0.934476 9.399872 26.666755 1.346636 12.857226 -35.590500 4.166000 12.378100 37.083000 9.391351 11.439202 -19.441900 -2.787209 -10.421169 30.397222 -4.022379 11.528136 -32.003173 -12.185400 -18.467900 66.575200 0.540607 -2.140723 -4.676218 2.192068 -1.308902 2.068831 7.244732 -1.860394 12.501997 1.278000 -0.441300 4.157000 -92.909028 10.183170 46.209246 38.634705 -47.854618 -13.874100 -1.307393 1.979851 -17.196589 -7.125000 0.000000 0.000000 96.532604 -4.059434 33.314542 -26.198174 37.552199 -8.580729 0.679392 -0.751164 9.622245 7.125000 0.000000 0.000000 
15.513955 17.784140 -33.864788 -1.859078 -13.619125 15.593263 -5.494512 -2.814244 -21.612157 0.919766 9.377949 26.590448 1.298439 13.107559 -35.651489 4.125600 12.325700 36.894200 9.550248 12.388688 -19.092830 -2.746706 -10.378740 30.295863 -4.159226 10.247826 -33.145794 -11.918500 -18.356000 65.730200 0.502193 -2.155436 -4.692463 2.167839 -1.316015 2.050469 7.158345 -1.670624 12.017420 1.383900 -0.378300 4.437800 -92.865763 10.110190 45.810920 37.555506 -47.140362 -13.260378 -1.309769 2.022569 -16.783407 -7.125000 0.000000 0.000000 96.651123 -4.235962 33.684253 -26.422147 37.775786 -8.704942 0.684875 -0.750922 9.412943 7.125000 0.000000 0.000000 
15.418316 17.777102 -33.890164 -1.820726 -13.979941 15.595693 -5.264129 -2.721027 -21.542511 0.904011 9.354750 26.510436 1.244695 13.406707 -35.739060 4.080900 12.267300 36.684300 9.741143 13.190508 -18.772539 -2.712508 -10.350578 30.243213 -4.228174 8.902054 -34.011406 -11.624200 -18.227200 64.792500 0.466203 -2.161639 -4.696553 2.136544 -1.321209 2.039388 7.105141 -1.509928 11.852371 1.348500 -0.303700 4.360200 -92.857289 10.044299 45.367417 36.515928 -46.432298 -12.682839 -1.322861 2.064431 -16.295765 -7.125000 0.000000 0.000000 96.746722 -4.378257 34.089852 -26.597067 37.951872 -8.803836 0.688895 -0.748498 9.227655 7.125000 0.000000 0.000000 
15.323636 17.771665 -33.913514 -1.813490 -14.350130 15.565589 -5.024993 -2.609253 -21.431541 0.889588 9.333361 26.438116 1.166128 13.810259 -35.821184 4.006500 12.169100 36.332800 9.984704 13.733686 -18.528515 -2.681615 -10.335220 30.231934 -4.203698 7.416106 -34.518987 -11.284500 -18.071500 63.702100 0.434354 -2.159751 -4.688276 2.095245 -1.323399 2.039940 7.015786 -1.345206 11.706038 1.297300 -0.227700 4.292400 -92.895015 9.974727 44.862954 35.495397 -45.716018 -12.125424 -1.330731 2.108148 -15.735243 -7.125000 0.000000 0.000000 96.815242 -4.472328 34.515223 -26.720751 38.077714 -8.873845 0.691383 -0.745864 9.012445 7.125000 0.000000 0.000000 
15.230022 17.768040 -33.934732 -1.837305 -14.723883 15.508017 -4.780220 -2.470964 -21.298952 0.880268 9.319173 26.388859 1.050855 14.331655 -35.858912 3.894500 12.018700 35.798100 10.281226 14.012642 -18.362000 -2.652761 -10.329414 30.250246 -4.084748 5.783513 -34.680585 -10.881900 -17.876800 62.397400 0.407576 -2.150459 -4.669384 2.045528 -1.322764 2.050099 6.900686 -1.175693 11.577910 1.236900 -0.149700 4.233400 -92.984043 9.898876 44.291748 34.484626 -44.987447 -11.584802 -1.339203 2.153802 -15.119331 -7.125000 0.000000 0.000000 96.856704 -4.519929 34.954404 -26.787108 38.147706 -8.911325 0.692318 -0.743110 8.814360 7.125000 0.000000 0.000000 
15.137368 17.766014 -33.954457 -1.885842 -15.063573 15.436484 -4.531671 -2.294374 -21.186244 0.880640 9.318230 26.379249 0.881560 14.967825 -35.771263 3.732400 11.795500 35.012500 10.627845 14.024898 -18.279076 -2.625785 -10.329885 30.284773 -3.882379 4.051115 -34.535007 -10.407400 -17.632600 60.841400 0.388191 -2.149206 -4.644130 1.991610 -1.326166 2.065647 6.780956 -1.002234 11.461933 1.178700 -0.069900 4.179200 -93.122264 9.811291 43.663276 33.473525 -44.232298 -11.044114 -1.337236 2.197328 -14.457155 -7.125000 0.000000 0.000000 96.872821 -4.528115 35.391784 -26.792864 38.158839 -8.914114 0.691840 -0.740870 8.675162 7.125000 0.000000 0.000000 
15.046100 17.765161 -33.972689 -1.958594 -15.377751 15.357579 -4.281440 -2.067256 -21.115357 0.895200 9.336589 26.425830 0.647960 15.719602 -35.515301 3.513800 11.483600 33.928800 11.016263 13.834006 -18.261249 -2.601379 -10.333815 30.325281 -3.616281 2.283760 -34.144018 -9.858200 -17.329400 59.013500 0.374646 -2.151737 -4.614867 1.930077 -1.331003 2.083787 6.663857 -0.829179 11.362766 1.126400 0.009800 4.132100 -93.304731 9.708758 42.974748 32.471021 -43.462341 -10.516893 -1.335948 2.240382 -13.820575 -7.125000 0.000000 0.000000 96.866412 -4.510488 35.835969 -26.750104 38.122918 -8.889659 0.690305 -0.738604 8.619506 7.125000 0.000000 0.000000 
14.955685 17.765587 -33.990495 -2.042818 -15.627961 15.295746 -4.032491 -1.781743 -21.142104 0.929028 9.379049 26.539513 0.326616 16.570703 -34.962668 3.216000 11.036800 32.404200 11.433904 13.477425 -18.319371 -2.580225 -10.338586 30.365032 -3.310583 0.535344 -33.587977 -9.236400 -16.957400 56.904000 0.367599 -2.172293 -4.590427 1.864851 -1.343315 2.094115 6.569702 -0.660776 11.279505 1.090200 0.087900 4.090900 -93.518689 9.596239 42.241756 31.489884 -42.687349 -10.009962 -1.337819 2.282001 -13.247821 -7.125000 0.000000 0.000000 96.843391 -4.480875 36.263221 -26.671080 38.050601 -8.843865 0.688182 -0.737556 8.636789 7.125000 0.000000 0.000000 
